<svg width="121" height="19" viewBox="0 0 121 19" fill="none" xmlns="http://www.w3.org/2000/svg">
<path d="M0.776 18.5V0.98H8.096L13.928 14.948H14.768L14.288 15.38V0.98H18.464V18.5H11.096L5.264 4.532H4.424L4.904 4.1V18.5H0.776ZM28.5384 18.98C26.8584 18.98 25.4344 18.668 24.2664 18.044C23.1144 17.42 22.2344 16.54 21.6264 15.404C21.0184 14.252 20.7144 12.892 20.7144 11.324V0.98H25.1784V11.42C25.1784 12.108 25.3064 12.708 25.5624 13.22C25.8344 13.732 26.2184 14.124 26.7144 14.396C27.2104 14.668 27.8184 14.804 28.5384 14.804C29.2584 14.804 29.8664 14.668 30.3624 14.396C30.8584 14.124 31.2344 13.74 31.4904 13.244C31.7464 12.732 31.8744 12.124 31.8744 11.42V0.98H36.3384V11.324C36.3384 12.892 36.0344 14.252 35.4264 15.404C34.8344 16.54 33.9544 17.42 32.7864 18.044C31.6344 18.668 30.2184 18.98 28.5384 18.98ZM38.606 18.5V0.98H44.798L48.398 10.22H48.878L52.454 0.98H58.766V18.5H54.35V3.548L55.046 3.596L50.534 14.972H46.478L41.942 3.596L42.686 3.548V18.5H38.606ZM65.2047 18.644V15.236H69.0687C69.7247 15.236 70.2127 15.068 70.5327 14.732C70.8527 14.396 71.0127 13.908 71.0127 13.268C71.0127 12.628 70.8527 12.148 70.5327 11.828C70.2127 11.492 69.7247 11.324 69.0687 11.324H65.2047V8.684H68.9247C70.1567 8.684 71.2607 8.836 72.2367 9.14C73.2127 9.428 73.9807 9.908 74.5407 10.58C75.1007 11.252 75.3808 12.148 75.3808 13.268V13.604C75.3808 14.66 75.1328 15.564 74.6367 16.316C74.1407 17.068 73.4127 17.644 72.4527 18.044C71.4927 18.444 70.3167 18.644 68.9247 18.644H65.2047ZM61.3647 18.644V0.835999H65.6847V18.644H61.3647ZM65.2047 10.652V8.012H68.4207C69.0767 8.012 69.5487 7.852 69.8367 7.532C70.1407 7.196 70.2927 6.732 70.2927 6.14C70.2927 5.532 70.1407 5.068 69.8367 4.748C69.5487 4.412 69.0767 4.244 68.4207 4.244H65.2047V0.835999H68.2287C70.2767 0.835999 71.8607 1.268 72.9807 2.132C74.1007 2.98 74.6607 4.196 74.6607 5.78V6.14C74.6607 7.244 74.3727 8.132 73.7967 8.804C73.2367 9.46 72.4687 9.932 71.4927 10.22C70.5327 10.508 69.4447 10.652 68.2287 10.652H65.2047ZM77.1157 18.5V0.98H81.4357V18.5H77.1157ZM80.9557 18.5V14.852H88.3477V18.5H80.9557ZM80.9557 11.42V7.772H87.8437V11.42H80.9557ZM80.9557 4.628V0.98H88.2037V4.628H80.9557ZM90.3588 18.5V0.835999H94.8228V18.5H90.3588ZM100.919 18.5L95.9988 11.06H100.847L106.055 18.5H100.919ZM93.6948 13.124V9.692H97.8948C98.4228 9.692 98.8788 9.588 99.2628 9.38C99.6468 9.172 99.9428 8.876 100.151 8.492C100.375 8.108 100.487 7.66 100.487 7.148C100.487 6.62 100.375 6.164 100.151 5.78C99.9428 5.396 99.6468 5.1 99.2628 4.892C98.8788 4.684 98.4228 4.58 97.8948 4.58H93.6948V0.835999H97.6308C99.1508 0.835999 100.463 1.068 101.567 1.532C102.671 1.98 103.519 2.652 104.111 3.548C104.703 4.428 104.999 5.524 104.999 6.836V7.22C104.999 8.532 104.695 9.628 104.087 10.508C103.495 11.372 102.647 12.028 101.543 12.476C100.455 12.908 99.1508 13.124 97.6308 13.124H93.6948ZM113.287 18.98C111.655 18.98 110.279 18.724 109.159 18.212C108.055 17.7 107.215 17.004 106.639 16.124C106.079 15.228 105.799 14.204 105.799 13.052H110.119C110.119 13.468 110.231 13.852 110.455 14.204C110.695 14.54 111.047 14.804 111.511 14.996C111.975 15.188 112.567 15.284 113.287 15.284C113.911 15.284 114.439 15.204 114.871 15.044C115.319 14.884 115.655 14.66 115.879 14.372C116.119 14.084 116.239 13.74 116.239 13.34C116.239 12.828 116.023 12.436 115.591 12.164C115.159 11.876 114.431 11.692 113.407 11.612L112.279 11.516C110.471 11.356 109.031 10.788 107.959 9.812C106.887 8.836 106.351 7.54 106.351 5.924C106.351 4.772 106.615 3.788 107.143 2.972C107.687 2.156 108.447 1.532 109.423 1.1C110.399 0.667999 111.551 0.451999 112.879 0.451999C114.319 0.451999 115.535 0.691999 116.527 1.172C117.535 1.652 118.303 2.332 118.831 3.212C119.359 4.076 119.623 5.084 119.623 6.236H115.303C115.303 5.852 115.207 5.5 115.015 5.18C114.823 4.86 114.543 4.612 114.175 4.436C113.823 4.244 113.391 4.148 112.879 4.148C112.399 4.148 111.991 4.228 111.655 4.388C111.335 4.532 111.087 4.74 110.911 5.012C110.751 5.284 110.671 5.588 110.671 5.924C110.671 6.372 110.823 6.756 111.127 7.076C111.431 7.396 111.959 7.588 112.711 7.652L113.839 7.748C115.151 7.86 116.311 8.148 117.319 8.612C118.327 9.06 119.119 9.676 119.695 10.46C120.271 11.244 120.559 12.204 120.559 13.34C120.559 14.476 120.263 15.468 119.671 16.316C119.095 17.164 118.263 17.82 117.175 18.284C116.103 18.748 114.807 18.98 113.287 18.98Z" fill="white"/>
</svg>
